<svg id="kity_svg_6" xmlns="http://www.w3.org/2000/svg" xmlns:xlink="http://www.w3.org/1999/xlink" version="1.1" width="2154" height="1286" style="display: inline; background: rgb(251, 251, 251);" viewBox="0 0 2154 1286"><defs id="kity_defs_7"><linearGradient id="kity_linearGradient_17" x1="0" y1="0" x2="0" y2="1"><stop id="kity_stop_18" offset="0" stop-color="rgb(255, 255, 255)"></stop><stop id="kity_stop_19" offset="1" stop-color="rgb(204, 204, 204)"></stop></linearGradient><marker id="kity_marker_2" orient="auto" refX="6" refY="0" viewBox="-7 -7 14 14" markerWidth="7" markerHeight="7" markerUnits="userSpaceOnUse"><path id="kity_path_3" fill="rgb(115, 191, 118)" stroke="none" d="M6,0A6,6,0,1,1,-6,0A6,6,0,1,1,6,0"></path></marker></defs><g id="kity_g_8"><g id="minder1" text-rendering="geometricPrecision"><g id="minder_connect_group1"><path id="kity_path_31" fill="none" stroke="rgb(115, 191, 118)" stroke-width="1" d="M157.5,402.5A255,244,0,0,1,412.5,158.5"></path><path id="kity_path_33" fill="none" stroke="rgb(115, 191, 118)" stroke-width="1" d="M632.5,158.5C652.5,158.5,652.5,107,672.5,107"></path><path id="kity_path_35" fill="none" stroke="rgb(115, 191, 118)" stroke-width="1" d="M632.5,158.5C652.5,158.5,652.5,234.5,672.5,234.5"></path><path id="kity_path_37" fill="none" stroke="rgb(115, 191, 118)" stroke-width="1" d="M632.5,158.5C652.5,158.5,652.5,286.5,672.5,286.5"></path><path id="kity_path_39" fill="none" stroke="rgb(115, 191, 118)" stroke-width="1" d="M157.5,402.5A255,244,0,0,0,412.5,646.5"></path><path id="kity_path_252" fill="none" stroke="rgb(115, 191, 118)" stroke-width="1" d="M732.5,373.5C752.5,373.5,752.5,347.5,772.5,347.5"></path><path id="kity_path_253" fill="none" stroke="rgb(115, 191, 118)" stroke-width="1" d="M732.5,373.5C752.5,373.5,752.5,399.5,772.5,399.5"></path><path id="kity_path_254" fill="none" stroke="rgb(115, 191, 118)" stroke-width="1" d="M576.5,646.5C596.5,646.5,596.5,373.5,616.5,373.5"></path><path id="kity_path_255" fill="none" stroke="rgb(115, 191, 118)" stroke-width="1" d="M734.5,529.5C754.5,529.5,754.5,451.5,774.5,451.5"></path><path id="kity_path_256" fill="none" stroke="rgb(115, 191, 118)" stroke-width="1" d="M877.5,503.5C897.5,503.5,897.5,503.5,917.5,503.5"></path><path id="kity_path_257" fill="none" stroke="rgb(115, 191, 118)" stroke-width="1" d="M734.5,529.5C754.5,529.5,754.5,503.5,774.5,503.5"></path><path id="kity_path_258" fill="none" stroke="rgb(115, 191, 118)" stroke-width="1" d="M882.5,607.5C902.5,607.5,902.5,555.5,922.5,555.5"></path><path id="kity_path_259" fill="none" stroke="rgb(115, 191, 118)" stroke-width="1" d="M882.5,607.5C902.5,607.5,902.5,607.5,922.5,607.5"></path><path id="kity_path_260" fill="none" stroke="rgb(115, 191, 118)" stroke-width="1" d="M882.5,607.5C902.5,607.5,902.5,659.5,922.5,659.5"></path><path id="kity_path_261" fill="none" stroke="rgb(115, 191, 118)" stroke-width="1" d="M734.5,529.5C754.5,529.5,754.5,607.5,774.5,607.5"></path><path id="kity_path_262" fill="none" stroke="rgb(115, 191, 118)" stroke-width="1" d="M576.5,646.5C596.5,646.5,596.5,529.5,616.5,529.5"></path><path id="kity_path_263" fill="none" stroke="rgb(115, 191, 118)" stroke-width="1" d="M759.5,919.5C779.5,919.5,779.5,712.5,799.5,712.5"></path><path id="kity_path_264" fill="none" stroke="rgb(115, 191, 118)" stroke-width="1" d="M759.5,919.5C779.5,919.5,779.5,764.5,799.5,764.5"></path><path id="kity_path_265" fill="none" stroke="rgb(115, 191, 118)" stroke-width="1" d="M759.5,919.5C779.5,919.5,779.5,881.5,799.5,881.5"></path><path id="kity_path_266" fill="none" stroke="rgb(115, 191, 118)" stroke-width="1" d="M1119.5,1126.5C1139.5,1126.5,1139.5,998.5,1159.5,998.5"></path><path id="kity_path_267" fill="none" stroke="rgb(115, 191, 118)" stroke-width="1" d="M1119.5,1126.5C1139.5,1126.5,1139.5,1153,1159.5,1153"></path><path id="kity_path_268" fill="none" stroke="rgb(115, 191, 118)" stroke-width="1" d="M759.5,919.5C779.5,919.5,779.5,1126.5,799.5,1126.5"></path><path id="kity_path_269" fill="none" stroke="rgb(115, 191, 118)" stroke-width="1" d="M576.5,646.5C596.5,646.5,596.5,919.5,616.5,919.5"></path></g><g id="minder_node1"><path id="node_outline1" fill="rgb(115, 191, 118)" stroke="rgb(115, 191, 118)" d="M25.5,379.5h264a5,5,0,0,1,5,5v36a5,5,0,0,1,-5,5h-264a5,5,0,0,1,-5,-5v-36a5,5,0,0,1,5,-5z" stroke-width="3"></path><g id="node_text1" fill="white"><text id="kity_text_22" text-rendering="inherit" font-size="16" dy=".8em" y="394.5" x="44.5">SYN Flood攻击及防御方法</text></g><a id="kity_a_249" xmlns:xlink="http://www.w3.org/1999/xlink" xlink:href="http://blog.csdn.net/bill_lee_sh_cn/article/details/6065704" target="_blank" xlink:title="http://blog.csdn.net/bill_lee_sh_cn/article/details/6065704" style="cursor: pointer;"><path id="kity_path_251" fill="rgba(255, 255, 255, 0)" stroke="none" d="M250.5,391.5h16a4,4,0,0,1,4,4v14a4,4,0,0,1,-4,4h-16a4,4,0,0,1,-4,-4v-14a4,4,0,0,1,4,-4z"></path><path id="kity_path_250" fill="#666" stroke="none" d="M265.114,407.724h-1.278c-1.668,0,-3.07,-1.07,-3.599,-2.556h4.877c0.707,0,1.278,-0.571,1.278,-1.278V401.334c0,-0.707,-0.571,-1.278,-1.278,-1.278h-4.877C260.766,398.571,262.168,397.5,263.836,397.5h1.278c2.116,0,3.834,1.716,3.834,3.834V403.89C268.948,406.008,267.23,407.724,265.114,407.724zM253.612,402.612c0,-0.707,0.573,-1.278,1.278,-1.278h7.668c0.707,0,1.278,0.571,1.278,1.278S263.265,403.89,262.558,403.89H254.89C254.185,403.89,253.612,403.319,253.612,402.612zM251.056,401.334V403.89c0,0.707,0.573,1.278,1.278,1.278h4.877c-0.528,1.486,-1.932,2.556,-3.599,2.556H252.334C250.216,407.724,248.5,406.008,248.5,403.89V401.334C248.5,399.216,250.216,397.5,252.334,397.5h1.278c1.667,0,3.071,1.071,3.599,2.556H252.334C251.629,400.056,251.056,400.627,251.056,401.334z"></path></a></g><g id="kity_g_12" display="none"><path id="kity_path_13" fill="none" stroke="none" d="M44.5,402.5h0v0h0z"></path></g><g id="kity_g_14" display="none"><path id="kity_path_15" fill="none" stroke="none" d="M44.5,402.5h0v0h0z"></path><path id="kity_path_16" fill="none" stroke="none"></path></g><g id="minder_node2"><g id="node_expander4" style="cursor: pointer;"><path id="kity_path_106" fill="white" stroke="gray" d="M413.5,158.5A6,6,0,1,1,401.5,158.5A6,6,0,1,1,413.5,158.5"></path><path id="kity_path_107" fill="none" stroke="gray" d="M403,158.5L412,158.5"></path></g><path id="node_outline5" fill="rgb(238, 246, 238)" stroke="rgb(115, 191, 118)" d="M417.5,145.5h212a3,3,0,0,1,3,3v20a3,3,0,0,1,-3,3h-212a3,3,0,0,1,-3,-3v-20a3,3,0,0,1,3,-3z" stroke-width="1"></path><g id="node_text5" fill="black"><text id="kity_text_63" text-rendering="inherit" font-size="14" dy=".8em" y="151.5" x="434.5">为什么Syn Flood会造成危害</text></g></g><g id="minder_node3"><g id="node_expander1" style="cursor: pointer;" display="none"><path id="kity_path_97" fill="white" stroke="gray" d="M672.5,107A6,6,0,1,1,660.5,107A6,6,0,1,1,672.5,107"></path><path id="kity_path_98" fill="none" stroke="gray"></path></g><path id="node_outline2" fill="none" stroke="none" d="M677.5,20.5h210a5,5,0,0,1,5,5v163a5,5,0,0,1,-5,5h-210a5,5,0,0,1,-5,-5v-163a5,5,0,0,1,5,-5z"></path><g id="node_text2" fill="black"><text id="kity_text_57" text-rendering="inherit" font-size="12" dy=".8em" y="176.5" x="747.5">TCP三次握手</text></g><image id="kity_image_82" xmlns:xlink="http://www.w3.org/1999/xlink" xlink:href="http://hi.csdn.net/attachment/201012/9/0_1291878303mXXX.gif" x="682.5" y="25.5" width="200" height="146"></image></g><g id="minder_node4"><g id="node_expander2" style="cursor: pointer;" display="none"><path id="kity_path_100" fill="white" stroke="gray" d="M672.5,234.5A6,6,0,1,1,660.5,234.5A6,6,0,1,1,672.5,234.5"></path><path id="kity_path_101" fill="none" stroke="gray"></path></g><path id="node_outline3" fill="none" stroke="none" d="M677.5,223.5h524a5,5,0,0,1,5,5v12a5,5,0,0,1,-5,5h-524a5,5,0,0,1,-5,-5v-12a5,5,0,0,1,5,-5z"></path><g id="node_text3" fill="black"><text id="kity_text_59" text-rendering="inherit" font-size="12" dy=".8em" y="228.5" x="682.5">服务器打开大量的半开连接，分配TCB，消耗大量的服务器资源，同时正常的连接请求无法被响应</text></g></g><g id="minder_node5"><g id="node_expander3" style="cursor: pointer;" display="none"><path id="kity_path_103" fill="white" stroke="gray" d="M672.5,286.5A6,6,0,1,1,660.5,286.5A6,6,0,1,1,672.5,286.5"></path><path id="kity_path_104" fill="none" stroke="gray"></path></g><path id="node_outline4" fill="none" stroke="none" d="M677.5,275.5h58a5,5,0,0,1,5,5v12a5,5,0,0,1,-5,5h-58a5,5,0,0,1,-5,-5v-12a5,5,0,0,1,5,-5z"></path><g id="node_text4" fill="black"><text id="kity_text_61" text-rendering="inherit" font-size="12" dy=".8em" y="280.5" x="682.5">分支主题</text></g></g><g id="minder_node6" opacity="1"><g id="node_expander13" style="cursor: pointer;"><path id="kity_path_133" fill="white" stroke="gray" d="M413.5,646.5A6,6,0,1,1,401.5,646.5A6,6,0,1,1,413.5,646.5"></path><path id="kity_path_134" fill="none" stroke="gray" d="M403,646.5L412,646.5"></path></g><path id="node_outline14" fill="rgb(238, 246, 238)" stroke="rgb(115, 191, 118)" d="M417.5,633.5h156a3,3,0,0,1,3,3v20a3,3,0,0,1,-3,3h-156a3,3,0,0,1,-3,-3v-20a3,3,0,0,1,3,-3z" stroke-width="1"></path><g id="node_text14" fill="black"><text id="kity_text_81" text-rendering="inherit" font-size="14" dy=".8em" y="639.5" x="434.5">防御Syn Flood攻击</text></g></g><g id="minder_node8"><g id="node_expander5" style="cursor: pointer;" display="none"><path id="kity_path_109" fill="white" stroke="gray" d="M772.5,347.5A6,6,0,1,1,760.5,347.5A6,6,0,1,1,772.5,347.5"></path><path id="kity_path_110" fill="none" stroke="gray"></path></g><path id="node_outline6" fill="none" stroke="none" d="M777.5,336.5h478a5,5,0,0,1,5,5v12a5,5,0,0,1,-5,5h-478a5,5,0,0,1,-5,-5v-12a5,5,0,0,1,5,-5z"></path><g id="node_text6" fill="black"><text id="kity_text_65" text-rendering="inherit" font-size="12" dy=".8em" y="341.5" x="782.5">监视系统的半开连接和不活动连接，当达到一定阈值时拆除这些连接，从而释放系统资源</text></g></g><g id="minder_node9"><g id="node_expander6" style="cursor: pointer;" display="none"><path id="kity_path_112" fill="white" stroke="gray" d="M772.5,399.5A6,6,0,1,1,760.5,399.5A6,6,0,1,1,772.5,399.5"></path><path id="kity_path_113" fill="none" stroke="gray"></path></g><path id="node_outline7" fill="none" stroke="none" d="M777.5,388.5h778a5,5,0,0,1,5,5v12a5,5,0,0,1,-5,5h-778a5,5,0,0,1,-5,-5v-12a5,5,0,0,1,5,-5z"></path><g id="node_text7" fill="black"><text id="kity_text_67" text-rendering="inherit" font-size="12" dy=".8em" y="393.5" x="782.5">所有连接一视同仁，而且由于SYN Flood造成的半开连接数量很大，正常连接请求也被淹没在其中被这种方式误释放掉，入门级的SYN Flood方法</text></g></g><g id="minder_node7"><g id="node_expander7" style="cursor: pointer;"><path id="kity_path_115" fill="white" stroke="gray" d="M616.5,373.5A6,6,0,1,1,604.5,373.5A6,6,0,1,1,616.5,373.5"></path><path id="kity_path_116" fill="none" stroke="gray" d="M606,373.5L615,373.5"></path></g><path id="node_outline8" fill="none" stroke="none" d="M621.5,362.5h106a5,5,0,0,1,5,5v12a5,5,0,0,1,-5,5h-106a5,5,0,0,1,-5,-5v-12a5,5,0,0,1,5,-5z"></path><g id="node_text8" fill="black"><text id="kity_text_69" text-rendering="inherit" font-size="12" dy=".8em" y="367.5" x="626.5">无效连接监视释放</text></g></g><g id="minder_node11"><g id="node_expander8" style="cursor: pointer;" display="none"><path id="kity_path_118" fill="white" stroke="gray" d="M774.5,451.5A6,6,0,1,1,762.5,451.5A6,6,0,1,1,774.5,451.5"></path><path id="kity_path_119" fill="none" stroke="gray"></path></g><path id="node_outline9" fill="none" stroke="none" d="M779.5,440.5h648a5,5,0,0,1,5,5v12a5,5,0,0,1,-5,5h-648a5,5,0,0,1,-5,-5v-12a5,5,0,0,1,5,-5z"></path><g id="node_text9" fill="black"><text id="kity_text_71" text-rendering="inherit" font-size="12" dy=".8em" y="445.5" x="784.5">当正常连接建立起来后再分配TCB则可以有效地减轻服务器资源的消耗。常见的方法是使用Syn Cache和Syn Cookie技术</text></g></g><g id="minder_node13"><g id="node_expander9" style="cursor: pointer;" display="none"><path id="kity_path_121" fill="white" stroke="gray" d="M917.5,503.5A6,6,0,1,1,905.5,503.5A6,6,0,1,1,917.5,503.5"></path><path id="kity_path_122" fill="none" stroke="gray"></path></g><path id="node_outline10" fill="none" stroke="none" d="M922.5,492.5h931a5,5,0,0,1,5,5v12a5,5,0,0,1,-5,5h-931a5,5,0,0,1,-5,-5v-12a5,5,0,0,1,5,-5z" stroke-width="3"></path><g id="node_text10" fill="black"><text id="kity_text_73" text-rendering="inherit" font-size="12" dy=".8em" y="497.5" x="927.5">收到SYN数据报文时不急于去分配TCB，而是先回应一个SYN ACK报文，并在一个专用HASH表（Cache）中保存这种半开连接信息，直到收到正确的回应ACK报文再分配TCB</text></g></g><g id="minder_node12"><g id="node_expander10" style="cursor: pointer;"><path id="kity_path_124" fill="white" stroke="gray" d="M774.5,503.5A6,6,0,1,1,762.5,503.5A6,6,0,1,1,774.5,503.5"></path><path id="kity_path_125" fill="none" stroke="gray" d="M764,503.5L773,503.5"></path></g><path id="node_outline11" fill="none" stroke="none" d="M779.5,492.5h93a5,5,0,0,1,5,5v12a5,5,0,0,1,-5,5h-93a5,5,0,0,1,-5,-5v-12a5,5,0,0,1,5,-5z"></path><g id="node_text11" fill="black"><text id="kity_text_75" text-rendering="inherit" font-size="12" dy=".8em" y="497.5" x="784.5">Syn Cache技术</text></g></g><g id="minder_node15"><g id="node_expander14" style="cursor: pointer;" display="none"><path id="kity_path_141" fill="white" stroke="gray" d="M922.5,555.5A6,6,0,1,1,910.5,555.5A6,6,0,1,1,922.5,555.5"></path><path id="kity_path_142" fill="none" stroke="gray" d="M912,555.5L921,555.5"></path></g><path id="node_outline15" fill="none" stroke="none" d="M927.5,544.5h1061a5,5,0,0,1,5,5v12a5,5,0,0,1,-5,5h-1061a5,5,0,0,1,-5,-5v-12a5,5,0,0,1,5,-5z" stroke-width="3"></path><g id="node_text15" fill="black"><text id="kity_text_138" text-rendering="inherit" font-size="12" dy=".8em" y="549.5" x="932.5">Syn Cache虽然不分配TCB，但是为了判断后续对方发来的ACK报文中的Sequence Number的正确性，还是需要使用一些空间去保存己方生成的Sequence Number等信息，也造成了一些资源的浪费</text></g></g><g id="minder_node17"><g id="node_expander16" style="cursor: pointer;" display="none"><path id="kity_path_157" fill="white" stroke="gray" d="M922.5,607.5A6,6,0,1,1,910.5,607.5A6,6,0,1,1,922.5,607.5"></path><path id="kity_path_158" fill="none" stroke="gray" d="M912,607.5L921,607.5"></path></g><path id="node_outline17" fill="none" stroke="none" d="M927.5,596.5h1055a5,5,0,0,1,5,5v12a5,5,0,0,1,-5,5h-1055a5,5,0,0,1,-5,-5v-12a5,5,0,0,1,5,-5z" stroke-width="3"></path><g id="node_text17" fill="black"><text id="kity_text_154" text-rendering="inherit" font-size="12" dy=".8em" y="601.5" x="932.5">Syn Cookie技术不使用任何存储资源，它使用一种特殊的算法生成Sequence Number，这种算法考虑到了对方的IP、端口、己方IP、端口的固定信息，以及对方无法知道而己方比较固定的一些信息</text></g></g><g id="minder_node19"><g id="node_expander18" style="cursor: pointer;" display="none"><path id="kity_path_173" fill="white" stroke="gray" d="M922.5,659.5A6,6,0,1,1,910.5,659.5A6,6,0,1,1,922.5,659.5"></path><path id="kity_path_174" fill="none" stroke="gray"></path></g><path id="node_outline19" fill="none" stroke="none" d="M927.5,648.5h728a5,5,0,0,1,5,5v12a5,5,0,0,1,-5,5h-728a5,5,0,0,1,-5,-5v-12a5,5,0,0,1,5,-5z" stroke-width="3"></path><g id="node_text19" fill="black"><text id="kity_text_170" text-rendering="inherit" font-size="12" dy=".8em" y="653.5" x="932.5">在收到对方的ACK报文后，重新计算一遍，看其是否与对方回应报文中的（Sequence Number-1）相同，从而决定是否分配TCB资源。</text></g></g><g id="minder_node14"><g id="node_expander11" style="cursor: pointer;"><path id="kity_path_127" fill="white" stroke="gray" d="M774.5,607.5A6,6,0,1,1,762.5,607.5A6,6,0,1,1,774.5,607.5"></path><path id="kity_path_128" fill="none" stroke="gray" d="M764,607.5L773,607.5"></path></g><path id="node_outline12" fill="none" stroke="none" d="M779.5,596.5h98a5,5,0,0,1,5,5v12a5,5,0,0,1,-5,5h-98a5,5,0,0,1,-5,-5v-12a5,5,0,0,1,5,-5z" stroke-width="3"></path><g id="node_text12" fill="black"><text id="kity_text_77" text-rendering="inherit" font-size="12" dy=".8em" y="601.5" x="784.5">Syn Cookie技术</text></g></g><g id="minder_node10"><g id="node_expander12" style="cursor: pointer;"><path id="kity_path_130" fill="white" stroke="gray" d="M616.5,529.5A6,6,0,1,1,604.5,529.5A6,6,0,1,1,616.5,529.5"></path><path id="kity_path_131" fill="none" stroke="gray" d="M606,529.5L615,529.5"></path></g><path id="node_outline13" fill="none" stroke="none" d="M621.5,518.5h108a5,5,0,0,1,5,5v12a5,5,0,0,1,-5,5h-108a5,5,0,0,1,-5,-5v-12a5,5,0,0,1,5,-5z"></path><g id="node_text13" fill="black"><text id="kity_text_79" text-rendering="inherit" font-size="12" dy=".8em" y="523.5" x="626.5">&#xa0;延缓TCB分配方法</text></g></g><g id="minder_node21"><g id="node_expander20" style="cursor: pointer;" display="none"><path id="kity_path_189" fill="white" stroke="gray" d="M799.5,712.5A6,6,0,1,1,787.5,712.5A6,6,0,1,1,799.5,712.5"></path><path id="kity_path_190" fill="none" stroke="gray" d="M789,712.5L798,712.5"></path></g><path id="node_outline21" fill="none" stroke="none" d="M804.5,701.5h715a5,5,0,0,1,5,5v12a5,5,0,0,1,-5,5h-715a5,5,0,0,1,-5,-5v-12a5,5,0,0,1,5,-5z" stroke-width="3"></path><g id="node_text21" fill="black"><text id="kity_text_186" text-rendering="inherit" font-size="12" dy=".8em" y="706.5" x="809.5">防火墙在确认了连接的有效性后，才向内部的服务器（Listener）发起SYN请求，在右图中，所有的无效连接均无法到达内部的服务器</text></g></g><g id="minder_node24"><g id="node_expander23" style="cursor: pointer;" display="none"><path id="kity_path_213" fill="white" stroke="gray" d="M799.5,764.5A6,6,0,1,1,787.5,764.5A6,6,0,1,1,799.5,764.5"></path><path id="kity_path_214" fill="none" stroke="gray"></path></g><path id="node_outline24" fill="none" stroke="none" d="M804.5,753.5h443a5,5,0,0,1,5,5v12a5,5,0,0,1,-5,5h-443a5,5,0,0,1,-5,-5v-12a5,5,0,0,1,5,-5z" stroke-width="3"></path><g id="node_text24" fill="black"><text id="kity_text_210" text-rendering="inherit" font-size="12" dy=".8em" y="758.5" x="809.5">防火墙采用的验证连接有效性的方法则可以是Syn Cookie或Syn Flood等其他技术</text></g></g><g id="minder_node25"><g id="node_expander24" style="cursor: pointer;" display="none"><path id="kity_path_221" fill="white" stroke="gray" d="M799.5,881.5A6,6,0,1,1,787.5,881.5A6,6,0,1,1,799.5,881.5"></path><path id="kity_path_222" fill="none" stroke="gray"></path></g><path id="node_outline25" fill="none" stroke="none" d="M804.5,805.5h210a5,5,0,0,1,5,5v142a5,5,0,0,1,-5,5h-210a5,5,0,0,1,-5,-5v-142a5,5,0,0,1,5,-5z" stroke-width="3"></path><g id="node_text25" fill="black"><text id="kity_text_218" text-rendering="inherit" font-size="12" dy=".8em" y="940.5" x="879.5">SYN Proxy</text></g><image id="kity_image_223" xmlns:xlink="http://www.w3.org/1999/xlink" xlink:href="http://hi.csdn.net/attachment/201012/9/0_1291878535LyKi.gif" x="809.5" y="810.5" width="200" height="125"></image></g><g id="minder_node27"><g id="node_expander26" style="cursor: pointer;" display="none"><path id="kity_path_238" fill="white" stroke="gray" d="M1159.5,998.5A6,6,0,1,1,1147.5,998.5A6,6,0,1,1,1159.5,998.5"></path><path id="kity_path_239" fill="none" stroke="gray"></path></g><path id="node_outline27" fill="none" stroke="none" d="M1164.5,987.5h965a5,5,0,0,1,5,5v12a5,5,0,0,1,-5,5h-965a5,5,0,0,1,-5,-5v-12a5,5,0,0,1,5,-5z" stroke-width="3"></path><g id="node_text27" fill="black"><text id="kity_text_235" text-rendering="inherit" font-size="12" dy=".8em" y="992.5" x="1169.5">&#xa0;因为防火墙代替发出的SYN ACK包中使用的序列号为c，而服务器真正的回应包中序列号为c’，这其中有一个差值|c-c’|，在每个相关数据报文经过防火墙的时候进行序列号的修改</text></g></g><g id="minder_node28"><g id="node_expander27" style="cursor: pointer;" display="none"><path id="kity_path_246" fill="white" stroke="gray" d="M1159.5,1153A6,6,0,1,1,1147.5,1153A6,6,0,1,1,1159.5,1153"></path><path id="kity_path_247" fill="none" stroke="gray"></path></g><path id="node_outline28" fill="none" stroke="none" d="M1164.5,1039.5h206a5,5,0,0,1,5,5v217a5,5,0,0,1,-5,5h-206a5,5,0,0,1,-5,-5v-217a5,5,0,0,1,5,-5z" stroke-width="3"></path><g id="node_text28" fill="black"><text id="kity_text_243" text-rendering="inherit" font-size="12" dy=".8em" y="1249.5" x="1243.5">分支主题</text></g><image id="kity_image_248" xmlns:xlink="http://www.w3.org/1999/xlink" xlink:href="http://hi.csdn.net/attachment/201012/9/0_1291879050sSQK.gif" x="1169.5" y="1044.5" width="196" height="200"></image></g><g id="minder_node26"><g id="node_expander25" style="cursor: pointer;"><path id="kity_path_230" fill="white" stroke="gray" d="M799.5,1126.5A6,6,0,1,1,787.5,1126.5A6,6,0,1,1,799.5,1126.5"></path><path id="kity_path_231" fill="none" stroke="gray" d="M789,1126.5L798,1126.5"></path></g><path id="node_outline26" fill="none" stroke="none" d="M804.5,1115.5h310a5,5,0,0,1,5,5v12a5,5,0,0,1,-5,5h-310a5,5,0,0,1,-5,-5v-12a5,5,0,0,1,5,-5z" stroke-width="3"></path><g id="node_text26" fill="black"><text id="kity_text_227" text-rendering="inherit" font-size="12" dy=".8em" y="1120.5" x="809.5">防火墙需要对整个有效连接的过程发生的数据包进行代理</text></g></g><g id="minder_node20"><g id="node_expander19" style="cursor: pointer;"><path id="kity_path_181" fill="white" stroke="gray" d="M616.5,919.5A6,6,0,1,1,604.5,919.5A6,6,0,1,1,616.5,919.5"></path><path id="kity_path_182" fill="none" stroke="gray" d="M606,919.5L615,919.5"></path></g><path id="node_outline20" fill="none" stroke="none" d="M621.5,908.5h133a5,5,0,0,1,5,5v12a5,5,0,0,1,-5,5h-133a5,5,0,0,1,-5,-5v-12a5,5,0,0,1,5,-5z" stroke-width="3"></path><g id="node_text20" fill="black"><text id="kity_text_178" text-rendering="inherit" font-size="12" dy=".8em" y="913.5" x="626.5">&#xa0;使用SYN Proxy防火墙</text></g></g></g></g></svg>